<svg fill="#c03e3e" id="Capa_1" enable-background="new 0 0 512.116 512.116" height="512" viewBox="0 0 512.116 512.116" width="512" xmlns="http://www.w3.org/2000/svg"><path d="m429.538 223.52-6.896-12.951-13.1 6.608c-10.019 5.054-20.848 7.575-32.145 7.517-38.675-.224-70.14-32.336-70.14-71.583v-25.22c0-40.906-14.012-81.074-39.455-113.104l-11.744-14.787-150.644 189.651c-28.864 34.465-45.113 78.196-45.76 123.163-.755 52.501 19.406 102.328 56.771 140.301 37.346 37.955 86.809 58.908 139.278 59.001h.167.018.172.002c52.401-.002 101.674-20.381 138.766-57.408 37.18-37.114 57.656-86.484 57.656-139.018-.001-32.108-7.935-63.981-22.946-92.17zm-120.236 175.374c2.894.007 5.83-.212 8.705-.676 1.894 6.128 2.848 12.517 2.848 19.102 0 17.33-6.754 33.616-19.02 45.859-12.237 12.215-28.49 18.938-45.778 18.938-.042 0-.084 0-.126 0-17.254-.033-33.553-6.958-45.895-19.501-12.352-12.553-19.018-28.979-18.769-46.251.213-14.851 5.587-29.293 15.133-40.667l47.466-59.748c2.043 6.016 3.113 12.364 3.113 18.769v11.093c.001 29.101 23.473 52.914 52.323 53.082zm64.331 34.583c-9.808 9.791-20.62 18.207-32.205 25.154 6.166-12.715 9.427-26.76 9.427-41.311 0-15.495-3.831-30.879-11.078-44.49l-6.896-12.951-13.1 6.609c-3.206 1.617-6.666 2.417-10.305 2.406-12.404-.072-22.496-10.427-22.496-23.083v-11.093c0-19.882-6.81-39.405-19.176-54.973l-11.746-14.787-72.771 91.614c-13.887 16.622-21.704 37.695-22.016 59.36-.213 14.806 3.02 29.165 9.331 42.2-11.786-7.184-22.799-15.902-32.794-26.059-31.694-32.21-48.796-74.411-48.157-118.828.549-38.151 14.355-75.251 38.875-104.466l.13-.155 126.618-159.404c14.271 23.613 21.984 50.939 21.984 78.671v25.22c0 55.693 44.844 101.264 99.965 101.583 10.785.082 21.488-1.618 31.677-4.917 8.915 20.696 13.583 43.232 13.583 65.914 0 44.51-17.348 86.34-48.85 117.786z"/></svg>