<svg  fill="#cc9400" height="418pt" viewBox="-53 0 418 418.90007" width="418pt" xmlns="http://www.w3.org/2000/svg"><path d="m89.6875 88.414062c-1.804688 0-3.605469-.714843-4.949219-2.121093-2.597656-2.734375-2.488281-7.058594.246094-9.65625l61.722656-58.632813c2.742188-2.59375 7.0625-2.472656 9.648438.25 2.597656 2.734375 2.484375 7.054688-.25 9.652344l-61.714844 58.628906c-1.324219 1.257813-3.011719 1.878906-4.703125 1.878906zm0 0"/><path d="m83.140625 227.753906c-1.746094 0-3.492187-.667968-4.824219-2l-68.269531-68.265625c-2.664063-2.664062-2.664063-6.988281 0-9.652343 2.667969-2.667969 6.988281-2.667969 9.65625 0l68.265625 68.265624c2.664062 2.667969 2.664062 6.988282 0 9.652344-1.335938 1.332032-3.082031 2-4.828125 2zm0 0"/><path d="m151.40625 296.023438c-1.800781 0-3.597656-.710938-4.945312-2.121094-2.597657-2.730469-2.492188-7.050782.242187-9.648438l67.933594-64.699218c2.726562-2.597657 7.03125-2.503907 9.652343.238281 2.597657 2.730469 2.492188 7.050781-.242187 9.648437l-67.933594 64.699219c-1.320312 1.257813-3.011719 1.882813-4.707031 1.882813zm0 0"/><path d="m294.765625 159.488281c-1.632813 0-3.273437-.585937-4.578125-1.765625l-66.175781-59.867187c-2.792969-2.53125-3.011719-6.847657-.476563-9.644531 2.53125-2.800782 6.847656-3.007813 9.636719-.484376l66.171875 59.871094c2.796875 2.53125 3.015625 6.847656.480469 9.644532-1.34375 1.488281-3.199219 2.246093-5.058594 2.246093zm0 0"/><path d="m151.40625 296.023438h-144.128906c-2.828125 0-5.363282-1.746094-6.375-4.382813-1.011719-2.644531-.289063-5.636719 1.8125-7.523437l125.058594-112.269532c2.792968-2.519531 7.113281-2.296875 9.636718.519532 2.523438 2.808593 2.289063 7.121093-.519531 9.640624l-111.792969 100.363282h119.480469v-102.402344c0-3.769531 3.054687-6.824219 6.828125-6.824219s6.824219 3.054688 6.824219 6.824219v109.226562c.003906 3.769532-3.050781 6.828126-6.824219 6.828126zm0 0"/><path d="m177.035156 143.90625c-1.882812 0-3.761718-.777344-5.109375-2.296875-2.5-2.824219-2.238281-7.140625.582031-9.640625l115.28125-102.1875h-129.554687v95.574219c0 3.769531-3.050781 6.828125-6.824219 6.828125-3.773437 0-6.828125-3.058594-6.828125-6.828125v-102.398438c0-3.773437 3.054688-6.828125 6.828125-6.828125h154.371094c2.832031 0 5.378906 1.753906 6.378906 4.40625 1.007813 2.648438.273438 5.648438-1.851562 7.53125l-128.75 114.121094c-1.296875 1.152344-2.910156 1.71875-4.523438 1.71875zm0 0"/><path d="m120.550781 159.007812h-105.675781c-3.769531 0-6.828125-3.058593-6.828125-6.828124v-145.355469c0-2.792969 1.703125-5.304688 4.296875-6.339844 2.597656-1.03125 5.558594-.382813 7.484375 1.640625l118.753906 125.144531c2.59375 2.738281 2.480469 7.058594-.25 9.652344-2.730469 2.589844-7.054687 2.484375-9.65625-.25l-106.972656-112.734375v121.417969h98.847656c3.769531 0 6.828125 3.058593 6.828125 6.828125 0 3.769531-3.058594 6.824218-6.828125 6.824218zm0 0"/><path d="m294.765625 312.152344c-1.859375 0-3.683594-.765625-5.007813-2.1875l-123.835937-133.59375c-2.5625-2.761719-2.402344-7.082032.363281-9.644532 2.761719-2.558593 7.074219-2.410156 9.648438.367188l112.007812 120.828125v-128.910156h-105.480468c-3.773438 0-6.828126-3.058594-6.828126-6.828125 0-3.769532 3.054688-6.828125 6.828126-6.828125h112.304687c3.773437 0 6.828125 3.058593 6.828125 6.828125v153.144531c0 2.804687-1.722656 5.328125-4.332031 6.355469-.8125.3125-1.652344.46875-2.496094.46875zm0 0"/><path d="m151.40625 186.796875c-18.820312 0-34.132812-15.316406-34.132812-34.136719 0-18.816406 15.3125-34.132812 34.132812-34.132812s34.132812 15.316406 34.132812 34.132812c0 18.820313-15.3125 34.136719-34.132812 34.136719zm0-54.617187c-11.292969 0-20.480469 9.1875-20.480469 20.480468 0 11.292969 9.1875 20.480469 20.480469 20.480469s20.480469-9.1875 20.480469-20.480469c0-11.292968-9.183594-20.480468-20.480469-20.480468zm0 0"/><path d="m151.40625 418.898438c-3.773438 0-6.828125-3.054688-6.828125-6.824219v-232.109375c0-3.769532 3.054687-6.824219 6.828125-6.824219s6.828125 3.054687 6.828125 6.824219v232.109375c0 3.769531-3.054687 6.824219-6.828125 6.824219zm0 0"/></svg>