<?xml version="1.0" encoding="iso-8859-1"?>
<!-- Generator: Adobe Illustrator 19.0.0, SVG Export Plug-In . SVG Version: 6.00 Build 0)  -->
<svg version="1.1" id="Capa_1" xmlns="http://www.w3.org/2000/svg" xmlns:xlink="http://www.w3.org/1999/xlink" x="0px" y="0px"
	 viewBox="0 0 462.982 462.982" style="enable-background:new 0 0 462.982 462.982;" xml:space="preserve">
<path d="M407.491,447.982h-29.215c-34.181-29.205-84.425-46.446-139.285-47.889v-44.251l34.526-34.526
	c6.316,1.174,12.714,1.758,19.124,1.758c29.535,0,59.213-12.213,81.29-34.29c27.914-27.914,40.055-67.971,31.687-104.538
	c-0.642-2.805-2.833-4.996-5.638-5.638c-36.567-8.368-76.624,3.774-104.538,31.687c-26.869,26.868-39.115,64.986-32.532,100.415
	l-23.919,23.919V196.337l22.526-22.526c4.353,0.743,8.756,1.109,13.163,1.109c22.002,0,44.097-9.086,60.526-25.516
	c20.778-20.777,29.811-50.615,23.574-77.869c-0.642-2.806-2.833-4.996-5.638-5.638c-27.254-6.235-57.091,2.796-77.869,23.574
	c-19.738,19.738-28.867,47.649-24.386,73.756l-11.896,11.896v-14.505c0-23.155-8.944-44.929-25.181-61.402
	c4.458-26.091-4.672-53.977-24.396-73.701c-20.778-20.778-50.613-29.81-77.87-23.574c-2.805,0.642-4.996,2.833-5.638,5.638
	c-6.237,27.253,2.796,57.091,23.574,77.869c16.431,16.431,38.523,25.516,60.526,25.516c4.424,0,8.846-0.37,13.217-1.119
	c13.39,13.637,20.767,31.636,20.767,50.774v110.009l-23.919-23.919c6.583-35.428-5.664-73.546-32.532-100.415
	c-27.914-27.915-67.972-40.057-104.538-31.687c-2.805,0.642-4.996,2.833-5.638,5.638c-8.368,36.567,3.773,76.624,31.687,104.538
	c22.079,22.079,51.753,34.29,81.29,34.29c6.408,0,12.808-0.585,19.124-1.759l34.527,34.527v108.251
	c-54.86,1.443-105.104,18.684-139.285,47.889H55.491c-4.142,0-7.5,3.358-7.5,7.5s3.358,7.5,7.5,7.5h352c4.142,0,7.5-3.358,7.5-7.5
	S411.633,447.982,407.491,447.982z M306.049,220.901c23.096-23.095,55.608-33.816,85.888-28.612
	c5.206,30.283-5.516,62.792-28.612,85.888c-20.695,20.694-48.947,31.445-76.383,29.714l70.019-70.019
	c2.929-2.929,2.929-7.678,0-10.606c-2.929-2.929-7.678-2.929-10.606,0l-70.019,70.019
	C274.604,269.847,285.355,241.595,306.049,220.901z M285.88,100.079c15.947-15.947,38.228-23.549,59.171-20.451
	c3.096,20.941-4.503,43.223-20.451,59.171c-13.433,13.433-31.359,20.942-49.196,21.125l43.139-43.139
	c2.929-2.929,2.929-7.678,0-10.606c-2.929-2.929-7.678-2.929-10.606,0l-43.185,43.185
	C264.912,131.499,272.424,113.535,285.88,100.079z M119.637,15.671c20.943-3.094,43.223,4.503,59.171,20.451
	c13.433,13.433,20.942,31.361,21.125,49.196l-43.139-43.139c-2.929-2.929-7.678-2.929-10.606,0c-2.929,2.929-2.929,7.678,0,10.606
	l43.185,43.185c-17.864-0.159-35.829-7.672-49.285-21.128C124.14,58.894,116.541,36.612,119.637,15.671z M99.657,214.177
	c-23.096-23.096-33.817-55.605-28.612-85.888c30.281-5.206,62.792,5.517,85.888,28.612c20.694,20.694,31.444,48.946,29.713,76.383
	l-70.019-70.019c-2.929-2.929-7.678-2.929-10.606,0c-2.929,2.929-2.929,7.678,0,10.606l70.019,70.019
	C148.605,245.622,120.352,234.871,99.657,214.177z M231.491,414.982c45.67,0,89.544,12.102,121.709,33H109.782
	C141.947,427.083,185.821,414.982,231.491,414.982z"/>
<g>
</g>
<g>
</g>
<g>
</g>
<g>
</g>
<g>
</g>
<g>
</g>
<g>
</g>
<g>
</g>
<g>
</g>
<g>
</g>
<g>
</g>
<g>
</g>
<g>
</g>
<g>
</g>
<g>
</g>
</svg>
